<?xml version="1.0" encoding="UTF-8"?>
<svg id="_레이어_1" data-name="레이어 1" xmlns="http://www.w3.org/2000/svg" viewBox="0 0 300 300">
  <defs>
    <style>
      .cls-1 {
        fill: #783ae8;
      }

      .cls-2 {
        fill: #fff;
      }

      .cls-3 {
        fill: #27d3d8;
      }
    </style>
  </defs>
  <g>
    <path d="M282.31,263.13l-152.1-.03-.38-.03c-2.91-.25-5.71-1.04-8.28-2.32-8.22,1.59-16.4,2.4-24.34,2.4-31.93,0-59.35-12.4-77.21-34.91C1.52,204.94-4.41,173.95,3.29,140.98,18.5,75.84,83.94,22.86,149.18,22.86c28.08,0,53.29,9.9,70.99,27.89,15.33,15.58,24.37,36.51,25.93,59.64h21.38s.38.04.38.04c5.39.47,10.22,2.65,13.97,6.32,4.28,4.19,6.68,9.8,6.75,15.8.07,6-2.21,11.66-6.4,15.94l-51.12,52.65,59.81,29.77.15.08c5.81,3.18,9.32,9.47,8.95,16.01-.51,9.04-8,16.13-17.06,16.13h-.6Z"/>
    <g>
      <path class="cls-1" d="M234.44,143c-14.35,61.44-75.79,111.24-137.23,111.24S-2.4,204.44,11.95,143C26.3,81.56,87.74,31.76,149.18,31.76s99.61,49.81,85.26,111.24Z"/>
      <path class="cls-2" d="M163.58,133.55c-6.28,26.87-33.14,48.65-60.01,48.65s-43.56-21.78-37.29-48.65c6.28-26.87,33.14-48.65,60.01-48.65s43.56,21.78,37.29,48.65Z"/>
      <path class="cls-3" d="M282.44,254.23l-151.84-.03c-3.35-.29-6.29-1.64-8.52-3.82-2.59-2.53-4.03-5.91-4.08-9.53-.04-3.62,1.33-7.04,3.86-9.62l52.14-53.7c.67-.69,1.2-1.47,1.58-2.34,1.74-3.96-.07-8.59-4.03-10.33l-60.61-30.18c-2.85-1.57-4.52-4.57-4.34-7.7.25-4.34,3.84-7.73,8.18-7.73h.47s151.84.04,151.84.04c3.36.29,6.29,1.64,8.52,3.82,2.59,2.53,4.03,5.91,4.08,9.53.04,3.62-1.33,7.03-3.86,9.62l-52.14,53.69c-.67.69-1.2,1.47-1.58,2.34-1.74,3.96.08,8.6,4.03,10.33l60.61,30.17c2.86,1.57,4.52,4.57,4.34,7.7-.25,4.34-3.84,7.74-8.18,7.74h-.47Z"/>
    </g>
  </g>
  <rect class="cls-1" x="156.89" y="152.06" width="37.8" height="72.03" rx="18.9" ry="18.9" transform="translate(-70.87 261.8) rotate(-63.58)"/>
</svg>