<?xml version="1.0" encoding="UTF-8"?>
<svg id="_레이어_1" data-name="레이어 1" xmlns="http://www.w3.org/2000/svg" viewBox="0 0 300 300">
  <defs>
    <style>
      .cls-1 {
        fill: #783ae8;
      }

      .cls-2 {
        fill: #27d3d8;
      }
    </style>
  </defs>
  <path d="M262.02,244.71l-128.77-.02-.32-.03c-2.46-.21-4.84-.88-7.01-1.97-6.96,1.35-13.88,2.03-20.61,2.03-27.03,0-50.25-10.5-65.37-29.55-15.65-19.72-20.68-45.96-14.16-73.88,12.88-55.14,68.29-100.01,123.52-100.01,23.78,0,45.12,8.39,60.1,23.61,12.98,13.19,20.63,30.91,21.95,50.5h18.1s.32.03.32.03c4.56.39,8.65,2.24,11.83,5.35,3.63,3.54,5.66,8.29,5.72,13.37.06,5.08-1.87,9.87-5.42,13.5l-43.29,44.58,50.64,25.21.13.07c4.92,2.69,7.89,8.02,7.58,13.56-.43,7.66-6.78,13.66-14.45,13.66h-.5Z"/>
  <g>
    <path class="cls-1" d="M221.49,143c-12.15,52.02-64.17,94.19-116.18,94.19s-84.34-42.17-72.19-94.19c12.15-52.02,64.17-94.19,116.18-94.19s84.34,42.17,72.19,94.19Z"/>
    <path class="cls-2" d="M262.13,237.18l-128.56-.02c-2.84-.24-5.33-1.39-7.21-3.23-2.19-2.14-3.41-5.01-3.45-8.07-.03-3.06,1.13-5.96,3.27-8.15l44.14-45.46c.57-.58,1.02-1.25,1.34-1.98,1.47-3.35-.06-7.28-3.41-8.74l-51.32-25.55c-2.42-1.33-3.83-3.87-3.67-6.52.21-3.67,3.25-6.55,6.93-6.55h.4s128.56.03,128.56.03c2.84.25,5.33,1.39,7.21,3.23,2.19,2.14,3.41,5.01,3.45,8.07.03,3.06-1.13,5.96-3.27,8.15l-44.14,45.46c-.57.58-1.02,1.25-1.34,1.98-1.47,3.35.06,7.28,3.41,8.75l51.32,25.55c2.42,1.33,3.83,3.87,3.68,6.52-.21,3.67-3.25,6.55-6.93,6.55h-.4Z"/>
  </g>
</svg>